<svg xmlns="http://www.w3.org/2000/svg" viewBox="0 0 800 1000" role="img" aria-labelledby="title desc">
  <title id="title">DailyKnit Cardigan</title><desc id="desc">Stylised oxblood merino cardigan on a muted plum background.</desc>
  <defs><linearGradient id="bg" x2="1" y2="1"><stop stop-color="#a68b8a"/><stop offset="1" stop-color="#66565f"/></linearGradient><linearGradient id="knit" x2="1" y2="1"><stop stop-color="#843f49"/><stop offset="1" stop-color="#4a202a"/></linearGradient><pattern id="rib" width="14" height="14" patternUnits="userSpaceOnUse"><path d="M0 0v14M7 0v14" stroke="#b46b71" stroke-opacity=".24" stroke-width="2"/></pattern><filter id="s"><feDropShadow dx="0" dy="24" stdDeviation="22" flood-opacity=".25"/></filter></defs>
  <rect width="800" height="1000" fill="url(#bg)"/><circle cx="635" cy="190" r="230" fill="#d2b8ae" opacity=".16"/><path d="M0 825l800-128v303H0z" fill="#3c3036" opacity=".24"/>
  <g filter="url(#s)"><path d="M295 225l105-45 105 45 116 125-83 89-47-58 34 408H275l34-408-47 58-83-89z" fill="url(#knit)" stroke="#9c5961" stroke-width="5"/><path d="M295 225l105 122 105-122M400 347v442" fill="none" stroke="#bc737a" stroke-width="5"/><path d="M284 475h232M280 596h240M276 717h248" stroke="url(#rib)" stroke-width="10" opacity=".55"/><path d="M315 525c22 34 46 34 68 0M417 525c22 34 46 34 68 0" fill="none" stroke="#d18a8d" stroke-width="4"/><g fill="#d3aa9b"><circle cx="400" cy="404" r="6"/><circle cx="400" cy="475" r="6"/><circle cx="400" cy="546" r="6"/><circle cx="400" cy="617" r="6"/></g></g>
  <text x="48" y="70" fill="#f2ddd3" font-family="monospace" font-size="18" letter-spacing="5">KATA / SOFT STRUCTURE</text><text x="48" y="930" fill="#fff4ec" font-family="serif" font-size="46">DailyKnit</text>
</svg>
